<mxfile host="app.diagrams.net" modified="2024-01-03T21:19:51.595Z" agent="Mozilla/5.0 (Windows NT 10.0; Win64; x64) AppleWebKit/537.36 (KHTML, like Gecko) Chrome/120.0.0.0 Safari/537.36" etag="ol-KHtQKrYhMW2QsK2mB" version="22.1.15" type="github" pages="2">
  <diagram name="Fisher59_SharepointBackup" id="cOv34Avx-x1bWVLOYu61">
    <mxGraphModel dx="1290" dy="530" grid="1" gridSize="10" guides="1" tooltips="1" connect="1" arrows="1" fold="1" page="1" pageScale="1" pageWidth="850" pageHeight="1100" math="0" shadow="0">
      <root>
        <mxCell id="0" />
        <mxCell id="1" parent="0" />
        <mxCell id="wF2li-MY8OZDLgnH1wH8-9" value="" style="rounded=0;whiteSpace=wrap;html=1;fillColor=#f5f5f5;strokeColor=#666666;fontColor=#333333;" parent="1" vertex="1">
          <mxGeometry x="250" y="350" width="460" height="190" as="geometry" />
        </mxCell>
        <mxCell id="wF2li-MY8OZDLgnH1wH8-1" value="SharePoint Sites" style="rounded=0;whiteSpace=wrap;html=1;" parent="1" vertex="1">
          <mxGeometry x="200" y="190" width="120" height="60" as="geometry" />
        </mxCell>
        <mxCell id="wF2li-MY8OZDLgnH1wH8-5" style="edgeStyle=orthogonalEdgeStyle;rounded=0;orthogonalLoop=1;jettySize=auto;html=1;entryX=0.5;entryY=1;entryDx=0;entryDy=0;curved=1;" parent="1" source="wF2li-MY8OZDLgnH1wH8-3" target="wF2li-MY8OZDLgnH1wH8-1" edge="1">
          <mxGeometry relative="1" as="geometry" />
        </mxCell>
        <mxCell id="wF2li-MY8OZDLgnH1wH8-3" value="Backup Script" style="shape=document;whiteSpace=wrap;html=1;boundedLbl=1;" parent="1" vertex="1">
          <mxGeometry x="310" y="400" width="150" height="70" as="geometry" />
        </mxCell>
        <mxCell id="wF2li-MY8OZDLgnH1wH8-4" value="" style="image;aspect=fixed;html=1;points=[];align=center;fontSize=12;image=img/lib/azure2/general/Scheduler.svg;" parent="1" vertex="1">
          <mxGeometry x="290" y="370" width="50" height="50" as="geometry" />
        </mxCell>
        <mxCell id="wF2li-MY8OZDLgnH1wH8-7" value="S3 bucket" style="sketch=0;outlineConnect=0;fontColor=#232F3E;gradientColor=none;fillColor=#7AA116;strokeColor=none;dashed=0;verticalLabelPosition=bottom;verticalAlign=top;align=center;html=1;fontSize=12;fontStyle=0;aspect=fixed;pointerEvents=1;shape=mxgraph.aws4.bucket;" parent="1" vertex="1">
          <mxGeometry x="580" y="398" width="71.15" height="74" as="geometry" />
        </mxCell>
        <mxCell id="wF2li-MY8OZDLgnH1wH8-8" style="edgeStyle=orthogonalEdgeStyle;rounded=0;orthogonalLoop=1;jettySize=auto;html=1;curved=1;" parent="1" source="wF2li-MY8OZDLgnH1wH8-3" target="wF2li-MY8OZDLgnH1wH8-7" edge="1">
          <mxGeometry relative="1" as="geometry" />
        </mxCell>
      </root>
    </mxGraphModel>
  </diagram>
  <diagram id="19z1jkhNIFfzjokXkAGI" name="WoolcoFoods - Invoice Automation">
    <mxGraphModel dx="1290" dy="530" grid="1" gridSize="10" guides="1" tooltips="1" connect="1" arrows="1" fold="1" page="1" pageScale="1" pageWidth="850" pageHeight="1100" math="0" shadow="0">
      <root>
        <mxCell id="0" />
        <mxCell id="1" parent="0" />
        <mxCell id="LnL1tHH3R1nAWZVjsry6-1" value="Inovice Scanner" style="shape=umlActor;verticalLabelPosition=bottom;verticalAlign=top;html=1;outlineConnect=0;" vertex="1" parent="1">
          <mxGeometry x="60" y="190" width="30" height="60" as="geometry" />
        </mxCell>
        <mxCell id="LnL1tHH3R1nAWZVjsry6-2" value="AWS SFTP" style="sketch=0;points=[[0,0,0],[0.25,0,0],[0.5,0,0],[0.75,0,0],[1,0,0],[0,1,0],[0.25,1,0],[0.5,1,0],[0.75,1,0],[1,1,0],[0,0.25,0],[0,0.5,0],[0,0.75,0],[1,0.25,0],[1,0.5,0],[1,0.75,0]];outlineConnect=0;fontColor=#232F3E;fillColor=#01A88D;strokeColor=#ffffff;dashed=0;verticalLabelPosition=bottom;verticalAlign=top;align=center;html=1;fontSize=12;fontStyle=0;aspect=fixed;shape=mxgraph.aws4.resourceIcon;resIcon=mxgraph.aws4.transfer_family;" vertex="1" parent="1">
          <mxGeometry x="220" y="80" width="60" height="60" as="geometry" />
        </mxCell>
        <mxCell id="LnL1tHH3R1nAWZVjsry6-3" style="edgeStyle=orthogonalEdgeStyle;rounded=0;orthogonalLoop=1;jettySize=auto;html=1;entryX=0.5;entryY=1;entryDx=0;entryDy=0;entryPerimeter=0;elbow=vertical;curved=1;" edge="1" parent="1" source="LnL1tHH3R1nAWZVjsry6-1" target="LnL1tHH3R1nAWZVjsry6-2">
          <mxGeometry relative="1" as="geometry" />
        </mxCell>
        <mxCell id="LnL1tHH3R1nAWZVjsry6-7" value="upload invoices&lt;br&gt;to SFTP" style="edgeLabel;html=1;align=center;verticalAlign=middle;resizable=0;points=[];" vertex="1" connectable="0" parent="LnL1tHH3R1nAWZVjsry6-3">
          <mxGeometry x="-0.1683" y="12" relative="1" as="geometry">
            <mxPoint as="offset" />
          </mxGeometry>
        </mxCell>
        <mxCell id="LnL1tHH3R1nAWZVjsry6-10" style="edgeStyle=orthogonalEdgeStyle;rounded=0;orthogonalLoop=1;jettySize=auto;html=1;curved=1;" edge="1" parent="1" source="LnL1tHH3R1nAWZVjsry6-4" target="LnL1tHH3R1nAWZVjsry6-9">
          <mxGeometry relative="1" as="geometry" />
        </mxCell>
        <mxCell id="LnL1tHH3R1nAWZVjsry6-18" value="extract the inovice number&lt;br&gt;customer name etc" style="edgeLabel;html=1;align=center;verticalAlign=middle;resizable=0;points=[];" vertex="1" connectable="0" parent="LnL1tHH3R1nAWZVjsry6-10">
          <mxGeometry x="-0.3236" y="-2" relative="1" as="geometry">
            <mxPoint as="offset" />
          </mxGeometry>
        </mxCell>
        <mxCell id="LnL1tHH3R1nAWZVjsry6-13" style="edgeStyle=orthogonalEdgeStyle;rounded=0;orthogonalLoop=1;jettySize=auto;html=1;curved=1;" edge="1" parent="1" source="LnL1tHH3R1nAWZVjsry6-4" target="LnL1tHH3R1nAWZVjsry6-12">
          <mxGeometry relative="1" as="geometry" />
        </mxCell>
        <mxCell id="LnL1tHH3R1nAWZVjsry6-14" value="store the invoice information&amp;nbsp;&lt;br&gt;into db" style="edgeLabel;html=1;align=center;verticalAlign=middle;resizable=0;points=[];" vertex="1" connectable="0" parent="LnL1tHH3R1nAWZVjsry6-13">
          <mxGeometry x="0.1498" y="2" relative="1" as="geometry">
            <mxPoint as="offset" />
          </mxGeometry>
        </mxCell>
        <mxCell id="LnL1tHH3R1nAWZVjsry6-4" value="" style="sketch=0;outlineConnect=0;fontColor=#232F3E;gradientColor=none;fillColor=#7AA116;strokeColor=none;dashed=0;verticalLabelPosition=bottom;verticalAlign=top;align=center;html=1;fontSize=12;fontStyle=0;aspect=fixed;pointerEvents=1;shape=mxgraph.aws4.lambda_function;" vertex="1" parent="1">
          <mxGeometry x="450" y="140" width="50" height="50" as="geometry" />
        </mxCell>
        <mxCell id="LnL1tHH3R1nAWZVjsry6-8" style="edgeStyle=orthogonalEdgeStyle;rounded=0;orthogonalLoop=1;jettySize=auto;html=1;entryX=1;entryY=0.5;entryDx=0;entryDy=0;entryPerimeter=0;curved=1;" edge="1" parent="1" source="LnL1tHH3R1nAWZVjsry6-4" target="LnL1tHH3R1nAWZVjsry6-2">
          <mxGeometry relative="1" as="geometry" />
        </mxCell>
        <mxCell id="LnL1tHH3R1nAWZVjsry6-11" value="get the invoice&lt;br&gt;and call the textract api" style="edgeLabel;html=1;align=center;verticalAlign=middle;resizable=0;points=[];" vertex="1" connectable="0" parent="LnL1tHH3R1nAWZVjsry6-8">
          <mxGeometry x="0.2328" y="9" relative="1" as="geometry">
            <mxPoint x="19" y="11" as="offset" />
          </mxGeometry>
        </mxCell>
        <mxCell id="LnL1tHH3R1nAWZVjsry6-9" value="Invoice Textract API" style="sketch=0;points=[[0,0,0],[0.25,0,0],[0.5,0,0],[0.75,0,0],[1,0,0],[0,1,0],[0.25,1,0],[0.5,1,0],[0.75,1,0],[1,1,0],[0,0.25,0],[0,0.5,0],[0,0.75,0],[1,0.25,0],[1,0.5,0],[1,0.75,0]];outlineConnect=0;fontColor=#232F3E;fillColor=#01A88D;strokeColor=#ffffff;dashed=0;verticalLabelPosition=bottom;verticalAlign=top;align=center;html=1;fontSize=12;fontStyle=0;aspect=fixed;shape=mxgraph.aws4.resourceIcon;resIcon=mxgraph.aws4.textract;" vertex="1" parent="1">
          <mxGeometry x="670" y="220" width="60" height="60" as="geometry" />
        </mxCell>
        <mxCell id="LnL1tHH3R1nAWZVjsry6-12" value="" style="outlineConnect=0;dashed=0;verticalLabelPosition=bottom;verticalAlign=top;align=center;html=1;shape=mxgraph.aws3.dynamo_db;fillColor=#2E73B8;gradientColor=none;" vertex="1" parent="1">
          <mxGeometry x="399" y="280" width="51" height="60" as="geometry" />
        </mxCell>
        <mxCell id="LnL1tHH3R1nAWZVjsry6-16" style="edgeStyle=orthogonalEdgeStyle;rounded=0;orthogonalLoop=1;jettySize=auto;html=1;curved=1;" edge="1" parent="1" source="LnL1tHH3R1nAWZVjsry6-15" target="LnL1tHH3R1nAWZVjsry6-12">
          <mxGeometry relative="1" as="geometry" />
        </mxCell>
        <mxCell id="LnL1tHH3R1nAWZVjsry6-17" value="search for invoices by &lt;br&gt;customer name, invoice no etc" style="edgeLabel;html=1;align=center;verticalAlign=middle;resizable=0;points=[];" vertex="1" connectable="0" parent="LnL1tHH3R1nAWZVjsry6-16">
          <mxGeometry x="0.1625" y="2" relative="1" as="geometry">
            <mxPoint x="-6" y="27" as="offset" />
          </mxGeometry>
        </mxCell>
        <mxCell id="LnL1tHH3R1nAWZVjsry6-15" value="Invoice Search UI&lt;br&gt;Display Invoices with all of its information &lt;br&gt;with a link to download the invoice" style="sketch=0;pointerEvents=1;shadow=0;dashed=0;html=1;strokeColor=none;labelPosition=center;verticalLabelPosition=bottom;verticalAlign=top;align=center;fillColor=#505050;shape=mxgraph.mscae.oms.dashboard" vertex="1" parent="1">
          <mxGeometry x="305" y="460" width="120" height="90" as="geometry" />
        </mxCell>
        <mxCell id="LnL1tHH3R1nAWZVjsry6-19" value="Woolco Foods&lt;br&gt;user" style="shape=umlActor;verticalLabelPosition=bottom;verticalAlign=top;html=1;outlineConnect=0;" vertex="1" parent="1">
          <mxGeometry x="70" y="410" width="30" height="60" as="geometry" />
        </mxCell>
        <mxCell id="LnL1tHH3R1nAWZVjsry6-20" style="edgeStyle=orthogonalEdgeStyle;rounded=0;orthogonalLoop=1;jettySize=auto;html=1;entryX=0;entryY=0.5;entryDx=0;entryDy=0;entryPerimeter=0;curved=1;" edge="1" parent="1" source="LnL1tHH3R1nAWZVjsry6-19" target="LnL1tHH3R1nAWZVjsry6-15">
          <mxGeometry relative="1" as="geometry" />
        </mxCell>
        <mxCell id="LnL1tHH3R1nAWZVjsry6-22" value="dynamo db to store&lt;br style=&quot;border-color: var(--border-color);&quot;&gt;the invoice info" style="text;html=1;align=center;verticalAlign=middle;resizable=0;points=[];autosize=1;strokeColor=none;fillColor=none;" vertex="1" parent="1">
          <mxGeometry x="450" y="290" width="130" height="40" as="geometry" />
        </mxCell>
        <mxCell id="LnL1tHH3R1nAWZVjsry6-23" value="1" style="ellipse;whiteSpace=wrap;html=1;aspect=fixed;fillColor=#CCFFFF;" vertex="1" parent="1">
          <mxGeometry x="150" y="160" width="20" height="20" as="geometry" />
        </mxCell>
        <mxCell id="LnL1tHH3R1nAWZVjsry6-24" value="2" style="ellipse;whiteSpace=wrap;html=1;aspect=fixed;fillColor=#CCFFFF;" vertex="1" parent="1">
          <mxGeometry x="379" y="170" width="20" height="20" as="geometry" />
        </mxCell>
        <mxCell id="LnL1tHH3R1nAWZVjsry6-25" value="3" style="ellipse;whiteSpace=wrap;html=1;aspect=fixed;fillColor=#CCFFFF;" vertex="1" parent="1">
          <mxGeometry x="630" y="210" width="20" height="20" as="geometry" />
        </mxCell>
        <mxCell id="LnL1tHH3R1nAWZVjsry6-26" value="4" style="ellipse;whiteSpace=wrap;html=1;aspect=fixed;fillColor=#CCFFFF;" vertex="1" parent="1">
          <mxGeometry x="450" y="340" width="20" height="20" as="geometry" />
        </mxCell>
        <mxCell id="LnL1tHH3R1nAWZVjsry6-27" value="5" style="ellipse;whiteSpace=wrap;html=1;aspect=fixed;fillColor=#CCFFFF;" vertex="1" parent="1">
          <mxGeometry x="280" y="520" width="20" height="20" as="geometry" />
        </mxCell>
      </root>
    </mxGraphModel>
  </diagram>
</mxfile>
